<svg width="600" height="400" viewBox="0 0 600 400" fill="none" xmlns="http://www.w3.org/2000/svg">
<rect width="600" height="400" fill="white"/>
<path d="M23.9716 35.2727V44H22.9148V36.3807H22.8636L20.733 37.7955V36.7216L22.9148 35.2727H23.9716ZM29.3281 44.1193C28.6861 44.1193 28.1392 43.9446 27.6875 43.5952C27.2358 43.2429 26.8906 42.733 26.652 42.0653C26.4134 41.3949 26.294 40.5852 26.294 39.6364C26.294 38.6932 26.4134 37.8878 26.652 37.2202C26.8935 36.5497 27.2401 36.0384 27.6918 35.6861C28.1463 35.331 28.6918 35.1534 29.3281 35.1534C29.9645 35.1534 30.5085 35.331 30.9602 35.6861C31.4148 36.0384 31.7614 36.5497 32 37.2202C32.2415 37.8878 32.3622 38.6932 32.3622 39.6364C32.3622 40.5852 32.2429 41.3949 32.0043 42.0653C31.7656 42.733 31.4205 43.2429 30.9688 43.5952C30.517 43.9446 29.9702 44.1193 29.3281 44.1193ZM29.3281 43.1818C29.9645 43.1818 30.4588 42.875 30.8111 42.2614C31.1634 41.6477 31.3395 40.7727 31.3395 39.6364C31.3395 38.8807 31.2585 38.2372 31.0966 37.706C30.9375 37.1747 30.7074 36.7699 30.4062 36.4915C30.108 36.2131 29.7486 36.0739 29.3281 36.0739C28.6974 36.0739 28.2045 36.3849 27.8494 37.0071C27.4943 37.6264 27.3168 38.5028 27.3168 39.6364C27.3168 40.392 27.3963 41.0341 27.5554 41.5625C27.7145 42.0909 27.9432 42.4929 28.2415 42.7685C28.5426 43.044 28.9048 43.1818 29.3281 43.1818ZM36.8281 44.1193C36.1861 44.1193 35.6392 43.9446 35.1875 43.5952C34.7358 43.2429 34.3906 42.733 34.152 42.0653C33.9134 41.3949 33.794 40.5852 33.794 39.6364C33.794 38.6932 33.9134 37.8878 34.152 37.2202C34.3935 36.5497 34.7401 36.0384 35.1918 35.6861C35.6463 35.331 36.1918 35.1534 36.8281 35.1534C37.4645 35.1534 38.0085 35.331 38.4602 35.6861C38.9148 36.0384 39.2614 36.5497 39.5 37.2202C39.7415 37.8878 39.8622 38.6932 39.8622 39.6364C39.8622 40.5852 39.7429 41.3949 39.5043 42.0653C39.2656 42.733 38.9205 43.2429 38.4688 43.5952C38.017 43.9446 37.4702 44.1193 36.8281 44.1193ZM36.8281 43.1818C37.4645 43.1818 37.9588 42.875 38.3111 42.2614C38.6634 41.6477 38.8395 40.7727 38.8395 39.6364C38.8395 38.8807 38.7585 38.2372 38.5966 37.706C38.4375 37.1747 38.2074 36.7699 37.9062 36.4915C37.608 36.2131 37.2486 36.0739 36.8281 36.0739C36.1974 36.0739 35.7045 36.3849 35.3494 37.0071C34.9943 37.6264 34.8168 38.5028 34.8168 39.6364C34.8168 40.392 34.8963 41.0341 35.0554 41.5625C35.2145 42.0909 35.4432 42.4929 35.7415 42.7685C36.0426 43.044 36.4048 43.1818 36.8281 43.1818Z" fill="black" fill-opacity="0.7"/>
<path d="M29.6989 102.719C29.1136 102.719 28.5966 102.616 28.1477 102.408C27.7017 102.198 27.3537 101.91 27.1037 101.543C26.8537 101.174 26.7301 100.753 26.733 100.282C26.7301 99.9125 26.8026 99.5716 26.9503 99.2591C27.098 98.9437 27.2997 98.6809 27.5554 98.4707C27.8139 98.2576 28.1023 98.1227 28.4205 98.0659V98.0147C28.0028 97.9068 27.6705 97.6724 27.4233 97.3116C27.1761 96.948 27.054 96.5346 27.0568 96.0716C27.054 95.6284 27.1662 95.2321 27.3935 94.8826C27.6207 94.5332 27.9332 94.2576 28.331 94.0559C28.7315 93.8542 29.1875 93.7534 29.6989 93.7534C30.2045 93.7534 30.6563 93.8542 31.054 94.0559C31.4517 94.2576 31.7642 94.5332 31.9915 94.8826C32.2216 95.2321 32.3381 95.6284 32.3409 96.0716C32.3381 96.5346 32.2116 96.948 31.9616 97.3116C31.7145 97.6724 31.3864 97.9068 30.9773 98.0147V98.0659C31.2926 98.1227 31.5767 98.2576 31.8295 98.4707C32.0824 98.6809 32.2841 98.9437 32.4347 99.2591C32.5852 99.5716 32.6619 99.9125 32.6648 100.282C32.6619 100.753 32.5341 101.174 32.2812 101.543C32.0312 101.91 31.6832 102.198 31.2372 102.408C30.794 102.616 30.2813 102.719 29.6989 102.719ZM29.6989 101.782C30.0938 101.782 30.4347 101.718 30.7216 101.59C31.0085 101.462 31.2301 101.282 31.3864 101.049C31.5426 100.816 31.6222 100.543 31.625 100.231C31.6222 99.9011 31.5369 99.6099 31.3693 99.3571C31.2017 99.1042 30.973 98.9054 30.6832 98.7605C30.3963 98.6156 30.0682 98.5432 29.6989 98.5432C29.3267 98.5432 28.9943 98.6156 28.7017 98.7605C28.4119 98.9054 28.1832 99.1042 28.0156 99.3571C27.8509 99.6099 27.7699 99.9011 27.7727 100.231C27.7699 100.543 27.8452 100.816 27.9986 101.049C28.1548 101.282 28.3778 101.462 28.6676 101.59C28.9574 101.718 29.3011 101.782 29.6989 101.782ZM29.6989 97.6397C30.0114 97.6397 30.2884 97.5772 30.5298 97.4522C30.7741 97.3272 30.9659 97.1525 31.1051 96.9281C31.2443 96.7037 31.3153 96.4409 31.3182 96.1397C31.3153 95.8443 31.2457 95.5872 31.1094 95.3684C30.973 95.1469 30.7841 94.9764 30.5426 94.8571C30.3011 94.7349 30.0199 94.6738 29.6989 94.6738C29.3722 94.6738 29.0866 94.7349 28.8423 94.8571C28.598 94.9764 28.4091 95.1469 28.2756 95.3684C28.142 95.5872 28.0767 95.8443 28.0795 96.1397C28.0767 96.4409 28.1435 96.7037 28.2798 96.9281C28.419 97.1525 28.6108 97.3272 28.8551 97.4522C29.0994 97.5772 29.3807 97.6397 29.6989 97.6397ZM37.1445 102.719C36.5025 102.719 35.9556 102.545 35.5039 102.195C35.0522 101.843 34.707 101.333 34.4684 100.665C34.2298 99.9949 34.1104 99.1852 34.1104 98.2363C34.1104 97.2932 34.2298 96.4878 34.4684 95.8201C34.7099 95.1497 35.0565 94.6383 35.5082 94.2861C35.9627 93.9309 36.5082 93.7534 37.1445 93.7534C37.7809 93.7534 38.3249 93.9309 38.7766 94.2861C39.2312 94.6383 39.5778 95.1497 39.8164 95.8201C40.0579 96.4878 40.1786 97.2932 40.1786 98.2363C40.1786 99.1852 40.0593 99.9949 39.8207 100.665C39.582 101.333 39.2369 101.843 38.7852 102.195C38.3335 102.545 37.7866 102.719 37.1445 102.719ZM37.1445 101.782C37.7809 101.782 38.2752 101.475 38.6275 100.861C38.9798 100.248 39.1559 99.3727 39.1559 98.2363C39.1559 97.4807 39.0749 96.8372 38.913 96.3059C38.7539 95.7747 38.5238 95.3699 38.2227 95.0915C37.9244 94.813 37.565 94.6738 37.1445 94.6738C36.5138 94.6738 36.021 94.9849 35.6658 95.6071C35.3107 96.2264 35.1332 97.1028 35.1332 98.2363C35.1332 98.992 35.2127 99.6341 35.3718 100.162C35.5309 100.691 35.7596 101.093 36.0579 101.368C36.359 101.644 36.7212 101.782 37.1445 101.782Z" fill="black" fill-opacity="0.7"/>
<path d="M29.8011 161.319C29.4432 161.314 29.0852 161.245 28.7273 161.115C28.3693 160.984 28.0426 160.764 27.7472 160.454C27.4517 160.142 27.2145 159.72 27.0355 159.189C26.8565 158.655 26.767 157.984 26.767 157.177C26.767 156.405 26.8395 155.72 26.9844 155.123C27.1293 154.524 27.3395 154.02 27.6151 153.611C27.8906 153.199 28.223 152.886 28.6122 152.673C29.0043 152.46 29.446 152.353 29.9375 152.353C30.4261 152.353 30.8608 152.451 31.2415 152.647C31.625 152.841 31.9375 153.111 32.179 153.457C32.4205 153.804 32.5767 154.203 32.6477 154.655H31.608C31.5114 154.263 31.3239 153.937 31.0455 153.679C30.767 153.42 30.3977 153.291 29.9375 153.291C29.2614 153.291 28.7287 153.585 28.3395 154.173C27.9531 154.761 27.7585 155.586 27.7557 156.649H27.8239C27.983 156.407 28.1719 156.201 28.3906 156.031C28.6122 155.858 28.8565 155.724 29.1236 155.63C29.3906 155.537 29.6733 155.49 29.9716 155.49C30.4716 155.49 30.929 155.615 31.3438 155.865C31.7585 156.112 32.0909 156.454 32.3409 156.892C32.5909 157.326 32.7159 157.825 32.7159 158.388C32.7159 158.927 32.5952 159.422 32.3537 159.87C32.1122 160.316 31.7727 160.672 31.3352 160.936C30.9006 161.197 30.3892 161.325 29.8011 161.319ZM29.8011 160.382C30.1591 160.382 30.4801 160.292 30.7642 160.113C31.0511 159.934 31.277 159.694 31.4418 159.393C31.6094 159.092 31.6932 158.757 31.6932 158.388C31.6932 158.027 31.6122 157.699 31.4503 157.403C31.2912 157.105 31.071 156.868 30.7898 156.691C30.5114 156.515 30.1932 156.427 29.8352 156.427C29.5653 156.427 29.3139 156.481 29.081 156.589C28.848 156.694 28.6435 156.839 28.4673 157.024C28.294 157.209 28.1577 157.42 28.0582 157.659C27.9588 157.895 27.9091 158.143 27.9091 158.405C27.9091 158.751 27.9901 159.075 28.152 159.376C28.3168 159.677 28.5412 159.92 28.8253 160.105C29.1122 160.29 29.4375 160.382 29.8011 160.382ZM37.2383 161.319C36.5962 161.319 36.0494 161.145 35.5977 160.795C35.146 160.443 34.8008 159.933 34.5621 159.265C34.3235 158.595 34.2042 157.785 34.2042 156.836C34.2042 155.893 34.3235 155.088 34.5621 154.42C34.8036 153.75 35.1502 153.238 35.6019 152.886C36.0565 152.531 36.6019 152.353 37.2383 152.353C37.8746 152.353 38.4187 152.531 38.8704 152.886C39.3249 153.238 39.6715 153.75 39.9102 154.42C40.1516 155.088 40.2724 155.893 40.2724 156.836C40.2724 157.785 40.1531 158.595 39.9144 159.265C39.6758 159.933 39.3306 160.443 38.8789 160.795C38.4272 161.145 37.8803 161.319 37.2383 161.319ZM37.2383 160.382C37.8746 160.382 38.369 160.075 38.7212 159.461C39.0735 158.848 39.2496 157.973 39.2496 156.836C39.2496 156.081 39.1687 155.437 39.0067 154.906C38.8477 154.375 38.6175 153.97 38.3164 153.691C38.0181 153.413 37.6587 153.274 37.2383 153.274C36.6076 153.274 36.1147 153.585 35.7596 154.207C35.4045 154.826 35.2269 155.703 35.2269 156.836C35.2269 157.592 35.3065 158.234 35.4656 158.763C35.6246 159.291 35.8533 159.693 36.1516 159.968C36.4528 160.244 36.815 160.382 37.2383 160.382Z" fill="black" fill-opacity="0.7"/>
<path d="M25.6989 218.01V217.141L29.5341 211.073H30.1648V212.419H29.7386L26.8409 217.005V217.073H32.0057V218.01H25.6989ZM29.8068 219.8V217.746V217.341V211.073H30.8125V219.8H29.8068ZM36.4492 219.919C35.8072 219.919 35.2603 219.745 34.8086 219.395C34.3569 219.043 34.0117 218.533 33.7731 217.865C33.5344 217.195 33.4151 216.385 33.4151 215.436C33.4151 214.493 33.5344 213.688 33.7731 213.02C34.0146 212.35 34.3612 211.838 34.8129 211.486C35.2674 211.131 35.8129 210.953 36.4492 210.953C37.0856 210.953 37.6296 211.131 38.0813 211.486C38.5359 211.838 38.8825 212.35 39.1211 213.02C39.3626 213.688 39.4833 214.493 39.4833 215.436C39.4833 216.385 39.364 217.195 39.1254 217.865C38.8867 218.533 38.5415 219.043 38.0898 219.395C37.6381 219.745 37.0913 219.919 36.4492 219.919ZM36.4492 218.982C37.0856 218.982 37.5799 218.675 37.9322 218.061C38.2844 217.448 38.4606 216.573 38.4606 215.436C38.4606 214.681 38.3796 214.037 38.2177 213.506C38.0586 212.975 37.8285 212.57 37.5273 212.292C37.229 212.013 36.8697 211.874 36.4492 211.874C35.8185 211.874 35.3256 212.185 34.9705 212.807C34.6154 213.426 34.4379 214.303 34.4379 215.436C34.4379 216.192 34.5174 216.834 34.6765 217.363C34.8356 217.891 35.0643 218.293 35.3626 218.569C35.6637 218.844 36.0259 218.982 36.4492 218.982Z" fill="black" fill-opacity="0.7"/>
<path d="M26.9034 278.4V277.633L29.7841 274.48C30.1222 274.11 30.4006 273.789 30.6193 273.517C30.8381 273.241 31 272.982 31.1051 272.741C31.2131 272.497 31.267 272.241 31.267 271.974C31.267 271.667 31.1932 271.401 31.0455 271.177C30.9006 270.953 30.7017 270.779 30.4489 270.657C30.196 270.535 29.9119 270.474 29.5966 270.474C29.2614 270.474 28.9688 270.543 28.7188 270.683C28.4716 270.819 28.2798 271.011 28.1435 271.258C28.0099 271.505 27.9432 271.795 27.9432 272.127H26.9375C26.9375 271.616 27.0554 271.167 27.2912 270.781C27.527 270.394 27.848 270.093 28.2543 269.877C28.6634 269.661 29.1222 269.553 29.6307 269.553C30.142 269.553 30.5952 269.661 30.9901 269.877C31.3849 270.093 31.6946 270.384 31.919 270.751C32.1435 271.117 32.2557 271.525 32.2557 271.974C32.2557 272.295 32.1974 272.609 32.081 272.916C31.9673 273.22 31.7685 273.559 31.4844 273.934C31.2031 274.306 30.8125 274.761 30.3125 275.298L28.3523 277.394V277.463H32.4091V278.4H26.9034ZM37.0156 278.519C36.3736 278.519 35.8267 278.345 35.375 277.995C34.9233 277.643 34.5781 277.133 34.3395 276.465C34.1009 275.795 33.9815 274.985 33.9815 274.036C33.9815 273.093 34.1009 272.288 34.3395 271.62C34.581 270.95 34.9276 270.438 35.3793 270.086C35.8338 269.731 36.3793 269.553 37.0156 269.553C37.652 269.553 38.196 269.731 38.6477 270.086C39.1023 270.438 39.4489 270.95 39.6875 271.62C39.929 272.288 40.0497 273.093 40.0497 274.036C40.0497 274.985 39.9304 275.795 39.6918 276.465C39.4531 277.133 39.108 277.643 38.6562 277.995C38.2045 278.345 37.6577 278.519 37.0156 278.519ZM37.0156 277.582C37.652 277.582 38.1463 277.275 38.4986 276.661C38.8509 276.048 39.027 275.173 39.027 274.036C39.027 273.281 38.946 272.637 38.7841 272.106C38.625 271.575 38.3949 271.17 38.0938 270.892C37.7955 270.613 37.4361 270.474 37.0156 270.474C36.3849 270.474 35.892 270.785 35.5369 271.407C35.1818 272.026 35.0043 272.903 35.0043 274.036C35.0043 274.792 35.0838 275.434 35.2429 275.963C35.402 276.491 35.6307 276.893 35.929 277.168C36.2301 277.444 36.5923 277.582 37.0156 277.582Z" fill="black" fill-opacity="0.7"/>
<path d="M36.75 337.119C36.108 337.119 35.5611 336.945 35.1094 336.595C34.6577 336.243 34.3125 335.733 34.0739 335.065C33.8352 334.395 33.7159 333.585 33.7159 332.636C33.7159 331.693 33.8352 330.888 34.0739 330.22C34.3153 329.55 34.6619 329.038 35.1136 328.686C35.5682 328.331 36.1136 328.153 36.75 328.153C37.3864 328.153 37.9304 328.331 38.3821 328.686C38.8366 329.038 39.1832 329.55 39.4219 330.22C39.6634 330.888 39.7841 331.693 39.7841 332.636C39.7841 333.585 39.6648 334.395 39.4261 335.065C39.1875 335.733 38.8423 336.243 38.3906 336.595C37.9389 336.945 37.392 337.119 36.75 337.119ZM36.75 336.182C37.3864 336.182 37.8807 335.875 38.233 335.261C38.5852 334.648 38.7614 333.773 38.7614 332.636C38.7614 331.881 38.6804 331.237 38.5185 330.706C38.3594 330.175 38.1293 329.77 37.8281 329.491C37.5298 329.213 37.1705 329.074 36.75 329.074C36.1193 329.074 35.6264 329.385 35.2713 330.007C34.9162 330.626 34.7386 331.503 34.7386 332.636C34.7386 333.392 34.8182 334.034 34.9773 334.562C35.1364 335.091 35.3651 335.493 35.6634 335.768C35.9645 336.044 36.3267 336.182 36.75 336.182Z" fill="black" fill-opacity="0.7"/>
<line x1="46" y1="37.5" x2="583" y2="37.5" stroke="#00001A" stroke-opacity="0.15" stroke-dasharray="2"/>
<line x1="46" y1="96.7" x2="583" y2="96.7" stroke="#00001A" stroke-opacity="0.15" stroke-dasharray="2"/>
<line x1="46" y1="155.9" x2="583" y2="155.9" stroke="#00001A" stroke-opacity="0.15" stroke-dasharray="2"/>
<line x1="46" y1="215.1" x2="583" y2="215.1" stroke="#00001A" stroke-opacity="0.15" stroke-dasharray="2"/>
<line x1="46" y1="274.3" x2="583" y2="274.3" stroke="#00001A" stroke-opacity="0.15" stroke-dasharray="2"/>
<line x1="46" y1="333.5" x2="583" y2="333.5" stroke="#00001A" stroke-opacity="0.3"/>
<line x1="45.5" y1="334" x2="45.5" y2="38" stroke="#00001A" stroke-opacity="0.15" stroke-dasharray="2"/>
<line x1="135" y1="334" x2="135" y2="38" stroke="#00001A" stroke-opacity="0.15" stroke-dasharray="2"/>
<line x1="224.5" y1="334" x2="224.5" y2="38" stroke="#00001A" stroke-opacity="0.15" stroke-dasharray="2"/>
<line x1="314" y1="334" x2="314" y2="38" stroke="#00001A" stroke-opacity="0.15" stroke-dasharray="2"/>
<line x1="403.5" y1="334" x2="403.5" y2="38" stroke="#00001A" stroke-opacity="0.15" stroke-dasharray="2"/>
<line x1="493" y1="334" x2="493" y2="38" stroke="#00001A" stroke-opacity="0.15" stroke-dasharray="2"/>
<line x1="582.5" y1="334" x2="582.5" y2="38" stroke="#00001A" stroke-opacity="0.15" stroke-dasharray="2"/>
<rect opacity="0.8" x="63" y="147.15" width="54" height="185.85" fill="#0088F0"/>
<rect opacity="0.8" x="152.833" y="108.8" width="54" height="224.2" fill="#0088F0"/>
<rect opacity="0.8" x="242.667" y="185.5" width="54" height="147.5" fill="#0088F0"/>
<rect opacity="0.8" x="332.5" y="191.4" width="54" height="141.6" fill="#0088F0"/>
<rect opacity="0.8" x="422.333" y="265.15" width="54" height="67.85" fill="#0088F0"/>
<rect opacity="0.8" x="512.167" y="303.5" width="54" height="29.5" fill="#0088F0"/>
<path d="M80.5555 341.153C80.9135 341.156 81.2714 341.224 81.6294 341.358C81.9873 341.491 82.314 341.713 82.6095 342.023C82.9049 342.33 83.1422 342.749 83.3211 343.28C83.5001 343.811 83.5896 344.477 83.5896 345.278C83.5896 346.054 83.5157 346.743 83.368 347.345C83.2231 347.945 83.0129 348.45 82.7373 348.862C82.4646 349.274 82.1322 349.587 81.7402 349.8C81.351 350.013 80.9106 350.119 80.4192 350.119C79.9305 350.119 79.4944 350.023 79.1109 349.83C78.7302 349.634 78.4177 349.362 78.1734 349.016C77.9319 348.666 77.7771 348.261 77.7089 347.801H78.7487C78.8424 348.202 79.0285 348.533 79.3069 348.794C79.5882 349.053 79.9589 349.182 80.4192 349.182C81.0924 349.182 81.6237 348.888 82.0129 348.3C82.4049 347.712 82.601 346.881 82.601 345.807H82.5328C82.3737 346.045 82.1848 346.251 81.966 346.425C81.7473 346.598 81.5044 346.732 81.2373 346.825C80.9703 346.919 80.6862 346.966 80.3851 346.966C79.8851 346.966 79.4263 346.842 79.0086 346.595C78.5939 346.345 78.2615 346.003 78.0115 345.568C77.7643 345.131 77.6407 344.631 77.6407 344.068C77.6407 343.534 77.7601 343.045 77.9987 342.602C78.2402 342.156 78.5782 341.801 79.0129 341.537C79.4504 341.273 79.9646 341.145 80.5555 341.153ZM80.5555 342.091C80.1976 342.091 79.8751 342.18 79.5882 342.359C79.3041 342.536 79.0782 342.774 78.9106 343.075C78.7459 343.374 78.6635 343.705 78.6635 344.068C78.6635 344.432 78.743 344.763 78.9021 345.061C79.064 345.357 79.2842 345.592 79.5626 345.768C79.8439 345.942 80.1635 346.028 80.5214 346.028C80.7913 346.028 81.0427 345.976 81.2757 345.871C81.5086 345.763 81.7118 345.616 81.8851 345.432C82.0612 345.244 82.199 345.033 82.2984 344.797C82.3978 344.558 82.4476 344.31 82.4476 344.051C82.4476 343.71 82.3652 343.391 82.2004 343.092C82.0385 342.794 81.814 342.553 81.5271 342.368C81.243 342.183 80.9192 342.091 80.5555 342.091ZM89.0324 345.168V346.105H85.2143V345.168H89.0324ZM93.8531 341.273V350H92.7963V342.381H92.7451L90.6145 343.795V342.722L92.7963 341.273H93.8531ZM99.2096 350.119C98.5676 350.119 98.0207 349.945 97.569 349.595C97.1173 349.243 96.7721 348.733 96.5335 348.065C96.2949 347.395 96.1755 346.585 96.1755 345.636C96.1755 344.693 96.2949 343.888 96.5335 343.22C96.775 342.55 97.1216 342.038 97.5733 341.686C98.0278 341.331 98.5733 341.153 99.2096 341.153C99.846 341.153 100.39 341.331 100.842 341.686C101.296 342.038 101.643 342.55 101.882 343.22C102.123 343.888 102.244 344.693 102.244 345.636C102.244 346.585 102.124 347.395 101.886 348.065C101.647 348.733 101.302 349.243 100.85 349.595C100.399 349.945 99.8517 350.119 99.2096 350.119ZM99.2096 349.182C99.846 349.182 100.34 348.875 100.693 348.261C101.045 347.648 101.221 346.773 101.221 345.636C101.221 344.881 101.14 344.237 100.978 343.706C100.819 343.175 100.589 342.77 100.288 342.491C99.9895 342.213 99.6301 342.074 99.2096 342.074C98.579 342.074 98.0861 342.385 97.7309 343.007C97.3758 343.626 97.1983 344.503 97.1983 345.636C97.1983 346.392 97.2778 347.034 97.4369 347.562C97.596 348.091 97.8247 348.493 98.123 348.768C98.4241 349.044 98.7863 349.182 99.2096 349.182Z" fill="black" fill-opacity="0.7"/>
<path d="M168.074 350.119C167.489 350.119 166.972 350.016 166.523 349.808C166.077 349.598 165.729 349.31 165.479 348.943C165.229 348.574 165.105 348.153 165.108 347.682C165.105 347.312 165.178 346.972 165.325 346.659C165.473 346.344 165.675 346.081 165.93 345.871C166.189 345.658 166.477 345.523 166.795 345.466V345.415C166.378 345.307 166.045 345.072 165.798 344.712C165.551 344.348 165.429 343.935 165.432 343.472C165.429 343.028 165.541 342.632 165.768 342.283C165.996 341.933 166.308 341.658 166.706 341.456C167.107 341.254 167.563 341.153 168.074 341.153C168.58 341.153 169.031 341.254 169.429 341.456C169.827 341.658 170.139 341.933 170.366 342.283C170.597 342.632 170.713 343.028 170.716 343.472C170.713 343.935 170.587 344.348 170.337 344.712C170.089 345.072 169.761 345.307 169.352 345.415V345.466C169.668 345.523 169.952 345.658 170.205 345.871C170.457 346.081 170.659 346.344 170.81 346.659C170.96 346.972 171.037 347.312 171.04 347.682C171.037 348.153 170.909 348.574 170.656 348.943C170.406 349.31 170.058 349.598 169.612 349.808C169.169 350.016 168.656 350.119 168.074 350.119ZM168.074 349.182C168.469 349.182 168.81 349.118 169.097 348.99C169.384 348.862 169.605 348.682 169.761 348.449C169.918 348.216 169.997 347.943 170 347.631C169.997 347.301 169.912 347.01 169.744 346.757C169.577 346.504 169.348 346.305 169.058 346.161C168.771 346.016 168.443 345.943 168.074 345.943C167.702 345.943 167.369 346.016 167.077 346.161C166.787 346.305 166.558 346.504 166.391 346.757C166.226 347.01 166.145 347.301 166.148 347.631C166.145 347.943 166.22 348.216 166.374 348.449C166.53 348.682 166.753 348.862 167.043 348.99C167.332 349.118 167.676 349.182 168.074 349.182ZM168.074 345.04C168.386 345.04 168.663 344.977 168.905 344.852C169.149 344.727 169.341 344.553 169.48 344.328C169.619 344.104 169.69 343.841 169.693 343.54C169.69 343.244 169.621 342.987 169.484 342.768C169.348 342.547 169.159 342.376 168.918 342.257C168.676 342.135 168.395 342.074 168.074 342.074C167.747 342.074 167.462 342.135 167.217 342.257C166.973 342.376 166.784 342.547 166.651 342.768C166.517 342.987 166.452 343.244 166.455 343.54C166.452 343.841 166.518 344.104 166.655 344.328C166.794 344.553 166.986 344.727 167.23 344.852C167.474 344.977 167.756 345.04 168.074 345.04ZM176.44 345.168V346.105H172.622V345.168H176.44ZM180.988 350.119C180.403 350.119 179.886 350.016 179.437 349.808C178.991 349.598 178.643 349.31 178.393 348.943C178.143 348.574 178.019 348.153 178.022 347.682C178.019 347.312 178.092 346.972 178.239 346.659C178.387 346.344 178.589 346.081 178.844 345.871C179.103 345.658 179.391 345.523 179.71 345.466V345.415C179.292 345.307 178.96 345.072 178.712 344.712C178.465 344.348 178.343 343.935 178.346 343.472C178.343 343.028 178.455 342.632 178.683 342.283C178.91 341.933 179.222 341.658 179.62 341.456C180.021 341.254 180.477 341.153 180.988 341.153C181.494 341.153 181.945 341.254 182.343 341.456C182.741 341.658 183.053 341.933 183.281 342.283C183.511 342.632 183.627 343.028 183.63 343.472C183.627 343.935 183.501 344.348 183.251 344.712C183.004 345.072 182.675 345.307 182.266 345.415V345.466C182.582 345.523 182.866 345.658 183.119 345.871C183.371 346.081 183.573 346.344 183.724 346.659C183.874 346.972 183.951 347.312 183.954 347.682C183.951 348.153 183.823 348.574 183.57 348.943C183.32 349.31 182.972 349.598 182.526 349.808C182.083 350.016 181.57 350.119 180.988 350.119ZM180.988 349.182C181.383 349.182 181.724 349.118 182.011 348.99C182.298 348.862 182.519 348.682 182.675 348.449C182.832 348.216 182.911 347.943 182.914 347.631C182.911 347.301 182.826 347.01 182.658 346.757C182.491 346.504 182.262 346.305 181.972 346.161C181.685 346.016 181.357 345.943 180.988 345.943C180.616 345.943 180.283 346.016 179.991 346.161C179.701 346.305 179.472 346.504 179.305 346.757C179.14 347.01 179.059 347.301 179.062 347.631C179.059 347.943 179.134 348.216 179.288 348.449C179.444 348.682 179.667 348.862 179.957 348.99C180.246 349.118 180.59 349.182 180.988 349.182ZM180.988 345.04C181.3 345.04 181.577 344.977 181.819 344.852C182.063 344.727 182.255 344.553 182.394 344.328C182.533 344.104 182.604 343.841 182.607 343.54C182.604 343.244 182.535 342.987 182.398 342.768C182.262 342.547 182.073 342.376 181.832 342.257C181.59 342.135 181.309 342.074 180.988 342.074C180.661 342.074 180.376 342.135 180.131 342.257C179.887 342.376 179.698 342.547 179.565 342.768C179.431 342.987 179.366 343.244 179.369 343.54C179.366 343.841 179.433 344.104 179.569 344.328C179.708 344.553 179.9 344.727 180.144 344.852C180.389 344.977 180.67 345.04 180.988 345.04ZM186.067 350.068C185.857 350.068 185.677 349.993 185.526 349.842C185.376 349.692 185.3 349.511 185.3 349.301C185.3 349.091 185.376 348.911 185.526 348.76C185.677 348.609 185.857 348.534 186.067 348.534C186.278 348.534 186.458 348.609 186.609 348.76C186.759 348.911 186.835 349.091 186.835 349.301C186.835 349.44 186.799 349.568 186.728 349.685C186.66 349.801 186.567 349.895 186.451 349.966C186.337 350.034 186.21 350.068 186.067 350.068ZM191.319 341.153C191.676 341.156 192.034 341.224 192.392 341.358C192.75 341.491 193.077 341.713 193.373 342.023C193.668 342.33 193.905 342.749 194.084 343.28C194.263 343.811 194.353 344.477 194.353 345.278C194.353 346.054 194.279 346.743 194.131 347.345C193.986 347.945 193.776 348.45 193.5 348.862C193.228 349.274 192.895 349.587 192.503 349.8C192.114 350.013 191.674 350.119 191.182 350.119C190.694 350.119 190.257 350.023 189.874 349.83C189.493 349.634 189.181 349.362 188.936 349.016C188.695 348.666 188.54 348.261 188.472 347.801H189.512C189.605 348.202 189.792 348.533 190.07 348.794C190.351 349.053 190.722 349.182 191.182 349.182C191.855 349.182 192.387 348.888 192.776 348.3C193.168 347.712 193.364 346.881 193.364 345.807H193.296C193.137 346.045 192.948 346.251 192.729 346.425C192.51 346.598 192.267 346.732 192 346.825C191.733 346.919 191.449 346.966 191.148 346.966C190.648 346.966 190.189 346.842 189.772 346.595C189.357 346.345 189.025 346.003 188.775 345.568C188.527 345.131 188.404 344.631 188.404 344.068C188.404 343.534 188.523 343.045 188.762 342.602C189.003 342.156 189.341 341.801 189.776 341.537C190.213 341.273 190.728 341.145 191.319 341.153ZM191.319 342.091C190.961 342.091 190.638 342.18 190.351 342.359C190.067 342.536 189.841 342.774 189.674 343.075C189.509 343.374 189.426 343.705 189.426 344.068C189.426 344.432 189.506 344.763 189.665 345.061C189.827 345.357 190.047 345.592 190.326 345.768C190.607 345.942 190.926 346.028 191.284 346.028C191.554 346.028 191.806 345.976 192.039 345.871C192.272 345.763 192.475 345.616 192.648 345.432C192.824 345.244 192.962 345.033 193.061 344.797C193.161 344.558 193.211 344.31 193.211 344.051C193.211 343.71 193.128 343.391 192.963 343.092C192.801 342.794 192.577 342.553 192.29 342.368C192.006 342.183 191.682 342.091 191.319 342.091Z" fill="black" fill-opacity="0.7"/>
<path d="M256.674 350L260.577 342.278V342.21H256.077V341.273H261.668V342.261L257.781 350H256.674ZM267.023 345.168V346.105H263.205V345.168H267.023ZM268.779 350L272.682 342.278V342.21H268.182V341.273H273.773V342.261L269.887 350H268.779ZM274.612 350.068C274.402 350.068 274.221 349.993 274.071 349.842C273.92 349.692 273.845 349.511 273.845 349.301C273.845 349.091 273.92 348.911 274.071 348.76C274.221 348.609 274.402 348.534 274.612 348.534C274.822 348.534 275.002 348.609 275.153 348.76C275.303 348.911 275.379 349.091 275.379 349.301C275.379 349.44 275.343 349.568 275.272 349.685C275.204 349.801 275.112 349.895 274.995 349.966C274.882 350.034 274.754 350.068 274.612 350.068ZM279.863 341.153C280.221 341.156 280.579 341.224 280.937 341.358C281.295 341.491 281.621 341.713 281.917 342.023C282.212 342.33 282.449 342.749 282.628 343.28C282.807 343.811 282.897 344.477 282.897 345.278C282.897 346.054 282.823 346.743 282.675 347.345C282.53 347.945 282.32 348.45 282.045 348.862C281.772 349.274 281.439 349.587 281.047 349.8C280.658 350.013 280.218 350.119 279.726 350.119C279.238 350.119 278.802 350.023 278.418 349.83C278.038 349.634 277.725 349.362 277.481 349.016C277.239 348.666 277.084 348.261 277.016 347.801H278.056C278.15 348.202 278.336 348.533 278.614 348.794C278.895 349.053 279.266 349.182 279.726 349.182C280.4 349.182 280.931 348.888 281.32 348.3C281.712 347.712 281.908 346.881 281.908 345.807H281.84C281.681 346.045 281.492 346.251 281.273 346.425C281.055 346.598 280.812 346.732 280.545 346.825C280.278 346.919 279.993 346.966 279.692 346.966C279.192 346.966 278.734 346.842 278.316 346.595C277.901 346.345 277.569 346.003 277.319 345.568C277.072 345.131 276.948 344.631 276.948 344.068C276.948 343.534 277.067 343.045 277.306 342.602C277.547 342.156 277.886 341.801 278.32 341.537C278.758 341.273 279.272 341.145 279.863 341.153ZM279.863 342.091C279.505 342.091 279.182 342.18 278.895 342.359C278.611 342.536 278.386 342.774 278.218 343.075C278.053 343.374 277.971 343.705 277.971 344.068C277.971 344.432 278.05 344.763 278.209 345.061C278.371 345.357 278.591 345.592 278.87 345.768C279.151 345.942 279.471 346.028 279.829 346.028C280.099 346.028 280.35 345.976 280.583 345.871C280.816 345.763 281.019 345.616 281.192 345.432C281.368 345.244 281.506 345.033 281.606 344.797C281.705 344.558 281.755 344.31 281.755 344.051C281.755 343.71 281.672 343.391 281.508 343.092C281.346 342.794 281.121 342.553 280.834 342.368C280.55 342.183 280.226 342.091 279.863 342.091Z" fill="black" fill-opacity="0.7"/>
<path d="M347.819 350.119C347.461 350.114 347.103 350.045 346.746 349.915C346.388 349.784 346.061 349.564 345.765 349.254C345.47 348.942 345.233 348.52 345.054 347.989C344.875 347.455 344.785 346.784 344.785 345.977C344.785 345.205 344.858 344.52 345.003 343.923C345.147 343.324 345.358 342.82 345.633 342.411C345.909 341.999 346.241 341.686 346.63 341.473C347.022 341.26 347.464 341.153 347.956 341.153C348.444 341.153 348.879 341.251 349.26 341.447C349.643 341.641 349.956 341.911 350.197 342.257C350.439 342.604 350.595 343.003 350.666 343.455H349.626C349.53 343.062 349.342 342.737 349.064 342.479C348.785 342.22 348.416 342.091 347.956 342.091C347.28 342.091 346.747 342.385 346.358 342.973C345.971 343.561 345.777 344.386 345.774 345.449H345.842C346.001 345.207 346.19 345.001 346.409 344.831C346.63 344.658 346.875 344.524 347.142 344.43C347.409 344.337 347.692 344.29 347.99 344.29C348.49 344.29 348.947 344.415 349.362 344.665C349.777 344.912 350.109 345.254 350.359 345.692C350.609 346.126 350.734 346.625 350.734 347.188C350.734 347.727 350.613 348.222 350.372 348.67C350.13 349.116 349.791 349.472 349.353 349.736C348.919 349.997 348.407 350.125 347.819 350.119ZM347.819 349.182C348.177 349.182 348.498 349.092 348.782 348.913C349.069 348.734 349.295 348.494 349.46 348.193C349.628 347.892 349.711 347.557 349.711 347.188C349.711 346.827 349.63 346.499 349.469 346.203C349.309 345.905 349.089 345.668 348.808 345.491C348.53 345.315 348.211 345.227 347.853 345.227C347.584 345.227 347.332 345.281 347.099 345.389C346.866 345.494 346.662 345.639 346.486 345.824C346.312 346.009 346.176 346.22 346.076 346.459C345.977 346.695 345.927 346.943 345.927 347.205C345.927 347.551 346.008 347.875 346.17 348.176C346.335 348.477 346.559 348.72 346.844 348.905C347.13 349.089 347.456 349.182 347.819 349.182ZM356.177 345.168V346.105H352.359V345.168H356.177ZM360.827 350.119C360.469 350.114 360.111 350.045 359.753 349.915C359.395 349.784 359.069 349.564 358.773 349.254C358.478 348.942 358.241 348.52 358.062 347.989C357.883 347.455 357.793 346.784 357.793 345.977C357.793 345.205 357.866 344.52 358.01 343.923C358.155 343.324 358.366 342.82 358.641 342.411C358.917 341.999 359.249 341.686 359.638 341.473C360.03 341.26 360.472 341.153 360.964 341.153C361.452 341.153 361.887 341.251 362.268 341.447C362.651 341.641 362.964 341.911 363.205 342.257C363.446 342.604 363.603 343.003 363.674 343.455H362.634C362.537 343.062 362.35 342.737 362.071 342.479C361.793 342.22 361.424 342.091 360.964 342.091C360.287 342.091 359.755 342.385 359.366 342.973C358.979 343.561 358.785 344.386 358.782 345.449H358.85C359.009 345.207 359.198 345.001 359.417 344.831C359.638 344.658 359.883 344.524 360.15 344.43C360.417 344.337 360.699 344.29 360.998 344.29C361.498 344.29 361.955 344.415 362.37 344.665C362.785 344.912 363.117 345.254 363.367 345.692C363.617 346.126 363.742 346.625 363.742 347.188C363.742 347.727 363.621 348.222 363.38 348.67C363.138 349.116 362.799 349.472 362.361 349.736C361.927 349.997 361.415 350.125 360.827 350.119ZM360.827 349.182C361.185 349.182 361.506 349.092 361.79 348.913C362.077 348.734 362.303 348.494 362.468 348.193C362.635 347.892 362.719 347.557 362.719 347.188C362.719 346.827 362.638 346.499 362.476 346.203C362.317 345.905 362.097 345.668 361.816 345.491C361.537 345.315 361.219 345.227 360.861 345.227C360.591 345.227 360.34 345.281 360.107 345.389C359.874 345.494 359.67 345.639 359.493 345.824C359.32 346.009 359.184 346.22 359.084 346.459C358.985 346.695 358.935 346.943 358.935 347.205C358.935 347.551 359.016 347.875 359.178 348.176C359.343 348.477 359.567 348.72 359.851 348.905C360.138 349.089 360.464 349.182 360.827 349.182ZM365.758 350.068C365.547 350.068 365.367 349.993 365.216 349.842C365.066 349.692 364.991 349.511 364.991 349.301C364.991 349.091 365.066 348.911 365.216 348.76C365.367 348.609 365.547 348.534 365.758 348.534C365.968 348.534 366.148 348.609 366.299 348.76C366.449 348.911 366.525 349.091 366.525 349.301C366.525 349.44 366.489 349.568 366.418 349.685C366.35 349.801 366.258 349.895 366.141 349.966C366.027 350.034 365.9 350.068 365.758 350.068ZM371.009 341.153C371.367 341.156 371.725 341.224 372.083 341.358C372.44 341.491 372.767 341.713 373.063 342.023C373.358 342.33 373.595 342.749 373.774 343.28C373.953 343.811 374.043 344.477 374.043 345.278C374.043 346.054 373.969 346.743 373.821 347.345C373.676 347.945 373.466 348.45 373.19 348.862C372.918 349.274 372.585 349.587 372.193 349.8C371.804 350.013 371.364 350.119 370.872 350.119C370.384 350.119 369.948 350.023 369.564 349.83C369.183 349.634 368.871 349.362 368.627 349.016C368.385 348.666 368.23 348.261 368.162 347.801H369.202C369.296 348.202 369.482 348.533 369.76 348.794C370.041 349.053 370.412 349.182 370.872 349.182C371.546 349.182 372.077 348.888 372.466 348.3C372.858 347.712 373.054 346.881 373.054 345.807H372.986C372.827 346.045 372.638 346.251 372.419 346.425C372.2 346.598 371.958 346.732 371.69 346.825C371.423 346.919 371.139 346.966 370.838 346.966C370.338 346.966 369.879 346.842 369.462 346.595C369.047 346.345 368.715 346.003 368.465 345.568C368.217 345.131 368.094 344.631 368.094 344.068C368.094 343.534 368.213 343.045 368.452 342.602C368.693 342.156 369.031 341.801 369.466 341.537C369.904 341.273 370.418 341.145 371.009 341.153ZM371.009 342.091C370.651 342.091 370.328 342.18 370.041 342.359C369.757 342.536 369.531 342.774 369.364 343.075C369.199 343.374 369.117 343.705 369.117 344.068C369.117 344.432 369.196 344.763 369.355 345.061C369.517 345.357 369.737 345.592 370.016 345.768C370.297 345.942 370.617 346.028 370.975 346.028C371.244 346.028 371.496 345.976 371.729 345.871C371.962 345.763 372.165 345.616 372.338 345.432C372.514 345.244 372.652 345.033 372.752 344.797C372.851 344.558 372.901 344.31 372.901 344.051C372.901 343.71 372.818 343.391 372.654 343.092C372.492 342.794 372.267 342.553 371.98 342.368C371.696 342.183 371.372 342.091 371.009 342.091Z" fill="black" fill-opacity="0.7"/>
<path d="M437.629 350.119C437.129 350.119 436.678 350.02 436.278 349.821C435.877 349.622 435.556 349.349 435.315 349.003C435.073 348.656 434.941 348.261 434.919 347.818H435.941C435.981 348.213 436.16 348.54 436.478 348.798C436.799 349.054 437.183 349.182 437.629 349.182C437.987 349.182 438.305 349.098 438.583 348.93C438.865 348.763 439.085 348.533 439.244 348.24C439.406 347.945 439.487 347.611 439.487 347.239C439.487 346.858 439.403 346.518 439.235 346.22C439.071 345.919 438.843 345.682 438.553 345.509C438.264 345.335 437.933 345.247 437.561 345.244C437.294 345.241 437.019 345.283 436.738 345.368C436.457 345.45 436.225 345.557 436.044 345.688L435.055 345.568L435.583 341.273H440.117V342.21H436.47L436.163 344.784H436.214C436.393 344.642 436.617 344.524 436.887 344.43C437.157 344.337 437.438 344.29 437.731 344.29C438.265 344.29 438.741 344.418 439.159 344.673C439.579 344.926 439.909 345.273 440.147 345.713C440.389 346.153 440.509 346.656 440.509 347.222C440.509 347.778 440.384 348.276 440.134 348.713C439.887 349.148 439.546 349.491 439.112 349.744C438.677 349.994 438.183 350.119 437.629 350.119ZM445.969 345.168V346.105H442.151V345.168H445.969ZM450.449 350.119C449.949 350.119 449.499 350.02 449.098 349.821C448.698 349.622 448.377 349.349 448.135 349.003C447.894 348.656 447.762 348.261 447.739 347.818H448.762C448.801 348.213 448.98 348.54 449.299 348.798C449.62 349.054 450.003 349.182 450.449 349.182C450.807 349.182 451.125 349.098 451.404 348.93C451.685 348.763 451.905 348.533 452.064 348.24C452.226 347.945 452.307 347.611 452.307 347.239C452.307 346.858 452.223 346.518 452.056 346.22C451.891 345.919 451.664 345.682 451.374 345.509C451.084 345.335 450.753 345.247 450.381 345.244C450.114 345.241 449.84 345.283 449.558 345.368C449.277 345.45 449.046 345.557 448.864 345.688L447.875 345.568L448.404 341.273H452.938V342.21H449.29L448.983 344.784H449.034C449.213 344.642 449.438 344.524 449.708 344.43C449.977 344.337 450.259 344.29 450.551 344.29C451.085 344.29 451.561 344.418 451.979 344.673C452.399 344.926 452.729 345.273 452.968 345.713C453.209 346.153 453.33 346.656 453.33 347.222C453.33 347.778 453.205 348.276 452.955 348.713C452.708 349.148 452.367 349.491 451.932 349.744C451.497 349.994 451.003 350.119 450.449 350.119ZM455.444 350.068C455.234 350.068 455.054 349.993 454.903 349.842C454.753 349.692 454.677 349.511 454.677 349.301C454.677 349.091 454.753 348.911 454.903 348.76C455.054 348.609 455.234 348.534 455.444 348.534C455.655 348.534 455.835 348.609 455.986 348.76C456.136 348.911 456.212 349.091 456.212 349.301C456.212 349.44 456.176 349.568 456.105 349.685C456.037 349.801 455.944 349.895 455.828 349.966C455.714 350.034 455.587 350.068 455.444 350.068ZM460.696 341.153C461.053 341.156 461.411 341.224 461.769 341.358C462.127 341.491 462.454 341.713 462.75 342.023C463.045 342.33 463.282 342.749 463.461 343.28C463.64 343.811 463.73 344.477 463.73 345.278C463.73 346.054 463.656 346.743 463.508 347.345C463.363 347.945 463.153 348.45 462.877 348.862C462.605 349.274 462.272 349.587 461.88 349.8C461.491 350.013 461.051 350.119 460.559 350.119C460.071 350.119 459.634 350.023 459.251 349.83C458.87 349.634 458.558 349.362 458.313 349.016C458.072 348.666 457.917 348.261 457.849 347.801H458.889C458.982 348.202 459.169 348.533 459.447 348.794C459.728 349.053 460.099 349.182 460.559 349.182C461.232 349.182 461.764 348.888 462.153 348.3C462.545 347.712 462.741 346.881 462.741 345.807H462.673C462.514 346.045 462.325 346.251 462.106 346.425C461.887 346.598 461.644 346.732 461.377 346.825C461.11 346.919 460.826 346.966 460.525 346.966C460.025 346.966 459.566 346.842 459.149 346.595C458.734 346.345 458.401 346.003 458.151 345.568C457.904 345.131 457.781 344.631 457.781 344.068C457.781 343.534 457.9 343.045 458.139 342.602C458.38 342.156 458.718 341.801 459.153 341.537C459.59 341.273 460.105 341.145 460.696 341.153ZM460.696 342.091C460.338 342.091 460.015 342.18 459.728 342.359C459.444 342.536 459.218 342.774 459.051 343.075C458.886 343.374 458.803 343.705 458.803 344.068C458.803 344.432 458.883 344.763 459.042 345.061C459.204 345.357 459.424 345.592 459.703 345.768C459.984 345.942 460.303 346.028 460.661 346.028C460.931 346.028 461.183 345.976 461.416 345.871C461.649 345.763 461.852 345.616 462.025 345.432C462.201 345.244 462.339 345.033 462.438 344.797C462.538 344.558 462.588 344.31 462.588 344.051C462.588 343.71 462.505 343.391 462.34 343.092C462.178 342.794 461.954 342.553 461.667 342.368C461.383 342.183 461.059 342.091 460.696 342.091Z" fill="black" fill-opacity="0.7"/>
<path d="M532.688 346.114V345.432L538.177 342.636V343.727L533.967 345.756L534.001 345.688V345.858L533.967 345.79L538.177 347.818V348.909L532.688 346.114ZM543.019 350.119C542.519 350.119 542.068 350.02 541.668 349.821C541.267 349.622 540.946 349.349 540.705 349.003C540.463 348.656 540.331 348.261 540.308 347.818H541.331C541.371 348.213 541.55 348.54 541.868 348.798C542.189 349.054 542.573 349.182 543.019 349.182C543.377 349.182 543.695 349.098 543.973 348.93C544.255 348.763 544.475 348.533 544.634 348.24C544.796 347.945 544.877 347.611 544.877 347.239C544.877 346.858 544.793 346.518 544.625 346.22C544.46 345.919 544.233 345.682 543.943 345.509C543.654 345.335 543.323 345.247 542.951 345.244C542.683 345.241 542.409 345.283 542.128 345.368C541.847 345.45 541.615 345.557 541.433 345.688L540.445 345.568L540.973 341.273H545.507V342.21H541.86L541.553 344.784H541.604C541.783 344.642 542.007 344.524 542.277 344.43C542.547 344.337 542.828 344.29 543.121 344.29C543.655 344.29 544.131 344.418 544.549 344.673C544.969 344.926 545.299 345.273 545.537 345.713C545.779 346.153 545.899 346.656 545.899 347.222C545.899 347.778 545.774 348.276 545.524 348.713C545.277 349.148 544.936 349.491 544.502 349.744C544.067 349.994 543.573 350.119 543.019 350.119Z" fill="black" fill-opacity="0.7"/>
<rect x="258" y="367" width="11" height="11" fill="#0088F0" stroke="white"/>
<path d="M279.33 370.455C279.278 370.023 279.071 369.688 278.707 369.449C278.344 369.21 277.898 369.091 277.369 369.091C276.983 369.091 276.645 369.153 276.355 369.278C276.068 369.403 275.844 369.575 275.682 369.794C275.523 370.013 275.443 370.261 275.443 370.54C275.443 370.773 275.499 370.973 275.609 371.141C275.723 371.305 275.868 371.443 276.044 371.554C276.22 371.662 276.405 371.751 276.598 371.822C276.791 371.891 276.969 371.946 277.131 371.989L278.017 372.227C278.244 372.287 278.497 372.369 278.776 372.474C279.057 372.58 279.325 372.723 279.581 372.905C279.839 373.084 280.053 373.314 280.22 373.595C280.388 373.876 280.472 374.222 280.472 374.631C280.472 375.102 280.348 375.528 280.101 375.909C279.857 376.29 279.499 376.592 279.027 376.817C278.558 377.041 277.989 377.153 277.318 377.153C276.693 377.153 276.152 377.053 275.695 376.851C275.24 376.649 274.882 376.368 274.621 376.007C274.362 375.646 274.216 375.227 274.182 374.75H275.273C275.301 375.08 275.412 375.352 275.605 375.568C275.801 375.781 276.048 375.94 276.347 376.045C276.648 376.148 276.972 376.199 277.318 376.199C277.722 376.199 278.084 376.134 278.405 376.003C278.726 375.869 278.98 375.685 279.168 375.449C279.355 375.21 279.449 374.932 279.449 374.614C279.449 374.324 279.368 374.088 279.206 373.906C279.044 373.724 278.831 373.577 278.567 373.463C278.303 373.349 278.017 373.25 277.71 373.165L276.636 372.858C275.955 372.662 275.415 372.382 275.017 372.018C274.619 371.655 274.42 371.179 274.42 370.591C274.42 370.102 274.553 369.676 274.817 369.312C275.084 368.946 275.442 368.662 275.891 368.46C276.342 368.256 276.847 368.153 277.403 368.153C277.966 368.153 278.466 368.254 278.903 368.456C279.341 368.655 279.688 368.928 279.943 369.274C280.202 369.621 280.338 370.014 280.352 370.455H279.33ZM284.732 377.136C284.141 377.136 283.623 376.996 283.176 376.714C282.733 376.433 282.387 376.04 282.137 375.534C281.89 375.028 281.766 374.437 281.766 373.761C281.766 373.08 281.89 372.484 282.137 371.976C282.387 371.467 282.733 371.072 283.176 370.791C283.623 370.51 284.141 370.369 284.732 370.369C285.323 370.369 285.84 370.51 286.283 370.791C286.729 371.072 287.076 371.467 287.323 371.976C287.573 372.484 287.698 373.08 287.698 373.761C287.698 374.437 287.573 375.028 287.323 375.534C287.076 376.04 286.729 376.433 286.283 376.714C285.84 376.996 285.323 377.136 284.732 377.136ZM284.732 376.233C285.181 376.233 285.55 376.118 285.84 375.888C286.13 375.658 286.344 375.355 286.483 374.98C286.623 374.605 286.692 374.199 286.692 373.761C286.692 373.324 286.623 372.916 286.483 372.538C286.344 372.161 286.13 371.855 285.84 371.622C285.55 371.389 285.181 371.273 284.732 371.273C284.283 371.273 283.914 371.389 283.624 371.622C283.334 371.855 283.12 372.161 282.98 372.538C282.841 372.916 282.772 373.324 282.772 373.761C282.772 374.199 282.841 374.605 282.98 374.98C283.12 375.355 283.334 375.658 283.624 375.888C283.914 376.118 284.283 376.233 284.732 376.233ZM282.533 369.636L284.272 368.085H285.209L286.948 369.636H285.721L284.749 368.733L283.777 369.636H282.533ZM286.488 368.597L287.323 367.062H288.567L287.374 368.597H286.488ZM297.244 371.92L296.341 372.176C296.284 372.026 296.2 371.879 296.089 371.737C295.982 371.592 295.834 371.473 295.646 371.379C295.459 371.286 295.219 371.239 294.926 371.239C294.526 371.239 294.192 371.331 293.925 371.516C293.661 371.697 293.528 371.929 293.528 372.21C293.528 372.46 293.619 372.658 293.801 372.803C293.983 372.947 294.267 373.068 294.653 373.165L295.625 373.403C296.21 373.545 296.646 373.763 296.933 374.055C297.22 374.345 297.364 374.719 297.364 375.176C297.364 375.551 297.256 375.886 297.04 376.182C296.827 376.477 296.528 376.71 296.145 376.881C295.761 377.051 295.315 377.136 294.807 377.136C294.139 377.136 293.587 376.991 293.149 376.702C292.712 376.412 292.435 375.989 292.318 375.432L293.273 375.193C293.364 375.545 293.536 375.81 293.788 375.986C294.044 376.162 294.378 376.25 294.79 376.25C295.259 376.25 295.631 376.151 295.906 375.952C296.185 375.75 296.324 375.509 296.324 375.227C296.324 375 296.244 374.81 296.085 374.656C295.926 374.5 295.682 374.384 295.352 374.307L294.261 374.051C293.662 373.909 293.222 373.689 292.94 373.391C292.662 373.089 292.523 372.713 292.523 372.261C292.523 371.892 292.626 371.565 292.834 371.281C293.044 370.997 293.33 370.774 293.69 370.612C294.054 370.45 294.466 370.369 294.926 370.369C295.574 370.369 296.082 370.511 296.452 370.795C296.824 371.08 297.088 371.455 297.244 371.92ZM298.877 377V370.455H299.883V377H298.877ZM299.389 369.364C299.193 369.364 299.024 369.297 298.882 369.163C298.743 369.03 298.673 368.869 298.673 368.682C298.673 368.494 298.743 368.334 298.882 368.2C299.024 368.067 299.193 368 299.389 368C299.585 368 299.752 368.067 299.892 368.2C300.034 368.334 300.105 368.494 300.105 368.682C300.105 368.869 300.034 369.03 299.892 369.163C299.752 369.297 299.585 369.364 299.389 369.364ZM302.731 373.062V377H301.725V370.455H302.697V371.477H302.782C302.935 371.145 303.168 370.878 303.481 370.676C303.793 370.472 304.197 370.369 304.691 370.369C305.134 370.369 305.522 370.46 305.854 370.642C306.187 370.821 306.445 371.094 306.63 371.46C306.815 371.824 306.907 372.284 306.907 372.841V377H305.901V372.909C305.901 372.395 305.768 371.994 305.501 371.707C305.234 371.418 304.867 371.273 304.401 371.273C304.08 371.273 303.793 371.342 303.54 371.482C303.29 371.621 303.093 371.824 302.948 372.091C302.803 372.358 302.731 372.682 302.731 373.062ZM309.75 373.062V377H308.745V368.273H309.75V371.477H309.836C309.989 371.139 310.219 370.871 310.526 370.672C310.836 370.47 311.248 370.369 311.762 370.369C312.208 370.369 312.598 370.459 312.934 370.638C313.269 370.814 313.529 371.085 313.713 371.452C313.901 371.815 313.995 372.278 313.995 372.841V377H312.989V372.909C312.989 372.389 312.854 371.987 312.584 371.703C312.317 371.416 311.946 371.273 311.472 371.273C311.142 371.273 310.847 371.342 310.586 371.482C310.327 371.621 310.123 371.824 309.972 372.091C309.824 372.358 309.75 372.682 309.75 373.062ZM324.562 370.455L322.141 377H321.119L318.698 370.455H319.789L321.596 375.67H321.664L323.471 370.455H324.562ZM325.889 377V370.455H326.895V377H325.889ZM326.401 369.364C326.205 369.364 326.036 369.297 325.893 369.163C325.754 369.03 325.685 368.869 325.685 368.682C325.685 368.494 325.754 368.334 325.893 368.2C326.036 368.067 326.205 368 326.401 368C326.597 368 326.764 368.067 326.903 368.2C327.045 368.334 327.116 368.494 327.116 368.682C327.116 368.869 327.045 369.03 326.903 369.163C326.764 369.297 326.597 369.364 326.401 369.364ZM331.481 377.136C330.85 377.136 330.306 376.997 329.849 376.719C329.395 376.438 329.044 376.045 328.797 375.543C328.552 375.037 328.43 374.449 328.43 373.778C328.43 373.108 328.552 372.517 328.797 372.006C329.044 371.491 329.387 371.091 329.828 370.804C330.271 370.514 330.788 370.369 331.379 370.369C331.72 370.369 332.056 370.426 332.389 370.54C332.721 370.653 333.024 370.838 333.297 371.094C333.569 371.347 333.787 371.682 333.949 372.099C334.11 372.517 334.191 373.031 334.191 373.642V374.068H329.146V373.199H333.169C333.169 372.83 333.095 372.5 332.947 372.21C332.802 371.92 332.595 371.692 332.325 371.524C332.058 371.357 331.743 371.273 331.379 371.273C330.978 371.273 330.632 371.372 330.339 371.571C330.049 371.767 329.826 372.023 329.67 372.338C329.514 372.653 329.436 372.991 329.436 373.352V373.932C329.436 374.426 329.521 374.845 329.691 375.189C329.865 375.53 330.105 375.79 330.412 375.969C330.718 376.145 331.075 376.233 331.481 376.233C331.745 376.233 331.984 376.196 332.197 376.122C332.413 376.045 332.599 375.932 332.755 375.781C332.912 375.628 333.032 375.437 333.118 375.21L334.089 375.483C333.987 375.812 333.815 376.102 333.574 376.352C333.332 376.599 333.034 376.793 332.679 376.932C332.324 377.068 331.924 377.136 331.481 377.136ZM332.214 369.67L331.328 368.477L330.441 369.67H329.487V369.602L330.868 367.83H331.788L333.169 369.602V369.67H332.214ZM336.727 373.062V377H335.721V370.455H336.693V371.477H336.778C336.931 371.145 337.164 370.878 337.477 370.676C337.789 370.472 338.193 370.369 338.687 370.369C339.13 370.369 339.518 370.46 339.85 370.642C340.183 370.821 340.441 371.094 340.626 371.46C340.811 371.824 340.903 372.284 340.903 372.841V377H339.897V372.909C339.897 372.395 339.764 371.994 339.497 371.707C339.23 371.418 338.863 371.273 338.397 371.273C338.076 371.273 337.789 371.342 337.537 371.482C337.287 371.621 337.089 371.824 336.944 372.091C336.799 372.358 336.727 372.682 336.727 373.062Z" fill="black" fill-opacity="0.7"/>
</svg>
