<svg width="48" height="48" viewBox="0 0 48 48" fill="none" xmlns="http://www.w3.org/2000/svg">
<g clip-path="url(#clip0_1_62)">
<rect x="10" y="10" width="28" height="28" rx="2" fill="#0088F0"/>
<path d="M14.6667 19.261V13.7018C14.6667 12.3018 15.4063 10.007 18.9518 10.007C19.4139 10.0118 19.875 10.0484 20.332 10.1167C21.0518 10.3261 21.6845 10.7629 22.1354 11.3619C22.5863 11.9608 22.8312 12.6896 22.8333 13.4393V22.6852C23.5986 22.8827 24.4014 22.8827 25.1667 22.6852V13.4393C25.1688 12.6896 25.4137 11.9608 25.8646 11.3619C26.3155 10.7629 26.9481 10.3261 27.668 10.1167C28.1251 10.05 28.5862 10.0149 29.0482 10.0117C32.5937 10.007 33.3333 12.3018 33.3333 13.7018V19.261C33.3305 20.2741 32.9992 21.2589 32.3892 22.0677C31.7791 22.8765 30.9233 23.4657 29.95 23.7468L25.9238 24.8983C24.6656 25.257 23.3321 25.257 22.0738 24.8983L18.05 23.7468C17.0767 23.4657 16.2209 22.8765 15.6108 22.0677C15.0008 21.2589 14.6695 20.2741 14.6667 19.261ZM35.6667 14.697V19.261C35.6621 20.7811 35.1646 22.2587 34.2489 23.4721C33.3332 24.6854 32.0487 25.569 30.5882 25.9903L26.5643 27.1407C24.889 27.6191 23.1133 27.6191 21.438 27.1407L17.4107 25.9892C15.9506 25.5675 14.6666 24.684 13.7512 23.4709C12.8358 22.2578 12.3383 20.7807 12.3333 19.261V14.697C11.6114 15.2358 11.0248 15.9353 10.6198 16.7399C10.2148 17.5446 10.0026 18.4325 10 19.3333V27.5C10.0019 29.0465 10.617 30.5292 11.7106 31.6227C12.8042 32.7163 14.2868 33.3315 15.8333 33.3333H22.8333V35.6667H19.3333C19.0239 35.6667 18.7272 35.7896 18.5084 36.0084C18.2896 36.2272 18.1667 36.5239 18.1667 36.8333C18.1667 37.1427 18.2896 37.4395 18.5084 37.6583C18.7272 37.8771 19.0239 38 19.3333 38H28.6667C28.9761 38 29.2728 37.8771 29.4916 37.6583C29.7104 37.4395 29.8333 37.1427 29.8333 36.8333C29.8333 36.5239 29.7104 36.2272 29.4916 36.0084C29.2728 35.7896 28.9761 35.6667 28.6667 35.6667H25.1667V33.3333H32.1667C33.7132 33.3315 35.1959 32.7163 36.2894 31.6227C37.383 30.5292 37.9981 29.0465 38 27.5V19.3333C37.9974 18.4325 37.7852 17.5446 37.3802 16.7399C36.9752 15.9353 36.3886 15.2358 35.6667 14.697Z" fill="white"/>
</g>
<rect x="5" y="5" width="38" height="38" rx="7" stroke="#0088F0" stroke-width="10"/>
<defs>
<clipPath id="clip0_1_62">
<rect x="10" y="10" width="28" height="28" rx="2" fill="white"/>
</clipPath>
</defs>
</svg>
