<svg width="34" height="34" viewBox="0 0 34 34" fill="none" xmlns="http://www.w3.org/2000/svg">
<rect x="2.5" y="2.5" width="29" height="29" rx="4.5" fill="#E0EAFA"/>
<rect x="2.5" y="2.5" width="29" height="29" rx="4.5" stroke="#E0EAFA" stroke-width="5"/>
<path d="M22 27C20.6167 27 19.4375 26.5125 18.4625 25.5375C17.4875 24.5625 17 23.3833 17 22C17 20.6167 17.4875 19.4375 18.4625 18.4625C19.4375 17.4875 20.6167 17 22 17C23.3833 17 24.5625 17.4875 25.5375 18.4625C26.5125 19.4375 27 20.6167 27 22C27 23.3833 26.5125 24.5625 25.5375 25.5375C24.5625 26.5125 23.3833 27 22 27ZM23.675 24.375L24.375 23.675L22.5 21.8V19H21.5V22.2L23.675 24.375ZM10 26C9.45 26 8.97917 25.8042 8.5875 25.4125C8.19583 25.0208 8 24.55 8 24V10C8 9.45 8.19583 8.97917 8.5875 8.5875C8.97917 8.19583 9.45 8 10 8H14.175C14.3583 7.41667 14.7167 6.9375 15.25 6.5625C15.7833 6.1875 16.3667 6 17 6C17.6667 6 18.2625 6.1875 18.7875 6.5625C19.3125 6.9375 19.6667 7.41667 19.85 8H24C24.55 8 25.0208 8.19583 25.4125 8.5875C25.8042 8.97917 26 9.45 26 10V16.25C25.7 16.0333 25.3833 15.85 25.05 15.7C24.7167 15.55 24.3667 15.4167 24 15.3V10H22V13H12V10H10V24H15.3C15.4167 24.3667 15.55 24.7167 15.7 25.05C15.85 25.3833 16.0333 25.7 16.25 26H10ZM17 10C17.2833 10 17.5208 9.90417 17.7125 9.7125C17.9042 9.52083 18 9.28333 18 9C18 8.71667 17.9042 8.47917 17.7125 8.2875C17.5208 8.09583 17.2833 8 17 8C16.7167 8 16.4792 8.09583 16.2875 8.2875C16.0958 8.47917 16 8.71667 16 9C16 9.28333 16.0958 9.52083 16.2875 9.7125C16.4792 9.90417 16.7167 10 17 10Z" fill="#0088FF"/>
</svg>
