<svg width="30" height="30" viewBox="0 0 30 30" fill="none" xmlns="http://www.w3.org/2000/svg">
<g clip-path="url(#clip0_1_90)">
<rect x="5" y="5" width="20" height="20" rx="2" fill="#E0EAFA"/>
<path d="M19.8717 16.8475L16.2108 15.2708C15.43 14.935 14.5342 14.935 13.7542 15.2725L10.1167 16.8475C9.51417 17.1083 9.14 17.6783 9.13917 18.3342C9.13833 18.99 9.51167 19.5608 10.1125 19.8233L11.6667 20.5017V22.6617C11.6667 23.4733 12.1417 24.2167 12.8783 24.5558C13.5192 24.8508 14.2325 25 15 25C15.7675 25 16.4808 24.85 17.1233 24.5558C17.8583 24.2167 18.3333 23.4725 18.3333 22.6617V20.495L19.1667 20.1333V22.5008C19.1667 22.9617 19.5392 23.3342 20 23.3342C20.4608 23.3342 20.8333 22.9617 20.8333 22.5008C20.8333 22.5008 20.8333 18.3783 20.8333 18.3342C20.8333 17.6867 20.4658 17.1025 19.8717 16.8483V16.8475ZM14.4167 16.8025C14.7767 16.6458 15.1917 16.6458 15.5517 16.8008L19.1767 18.2817C19.1767 18.2933 19.1708 18.3025 19.17 18.3142L15.5575 19.8833C15.1942 20.0408 14.7775 20.0408 14.4142 19.8817L10.7783 18.3775L14.4158 16.8025H14.4167ZM16.6667 22.6608C16.6667 22.8267 16.5742 22.9733 16.4258 23.0417C15.5842 23.4275 14.415 23.4275 13.575 23.0417C13.4258 22.9733 13.3333 22.8267 13.3333 22.6608V21.2283L13.7483 21.4092C14.1425 21.5808 14.565 21.6667 14.9883 21.6667C15.4092 21.6667 15.83 21.5817 16.2225 21.4108L16.6667 21.2175V22.6608ZM10.8333 8.75C10.8333 9.44 10.2733 10 9.58333 10C8.89333 10 8.33333 9.44 8.33333 8.75C8.33333 8.06 8.89333 7.5 9.58333 7.5C10.2733 7.5 10.8333 8.06 10.8333 8.75ZM14.1667 8.75C14.1667 9.44 13.6067 10 12.9167 10C12.2267 10 11.6667 9.44 11.6667 8.75C11.6667 8.06 12.2267 7.5 12.9167 7.5C13.6067 7.5 14.1667 8.06 14.1667 8.75ZM20.8333 5H9.16667C6.86917 5 5 6.86917 5 9.16667V19.1667C5 21.4642 6.86917 23.3333 9.16667 23.3333C9.62667 23.3333 10 22.9608 10 22.5C10 22.0392 9.62667 21.6667 9.16667 21.6667C7.78833 21.6667 6.66667 20.545 6.66667 19.1667V12.5H23.3333V19.1667C23.3333 19.7758 23.1117 20.3633 22.7092 20.8192C22.405 21.1642 22.4375 21.6908 22.7833 21.995C23.1267 22.2992 23.6542 22.2675 23.9592 21.9208C24.6308 21.1608 25 20.1817 25 19.1658V9.16667C25 6.86917 23.1308 5 20.8333 5ZM6.66667 10.8333V9.16667C6.66667 7.78833 7.78833 6.66667 9.16667 6.66667H20.8333C22.2117 6.66667 23.3333 7.78833 23.3333 9.16667V10.8333H6.66667Z" fill="#0088F0"/>
</g>
<rect x="2.5" y="2.5" width="25" height="25" rx="4.5" stroke="#E0EAFA" stroke-width="5"/>
<defs>
<clipPath id="clip0_1_90">
<rect x="5" y="5" width="20" height="20" rx="2" fill="white"/>
</clipPath>
</defs>
</svg>
