<svg width="28" height="28" viewBox="0 0 28 28" fill="none" xmlns="http://www.w3.org/2000/svg">
<path d="M13.1643 2.96211C13.5584 2.61562 14.156 2.61562 14.55 2.96211L24.5965 11.7512C25.0252 12.1231 25.0598 12.7654 24.6744 13.1837C24.289 13.602 23.6352 13.6358 23.2065 13.2598L22.86 12.9555V21.6306C22.86 23.1222 21.6172 24.3349 20.0886 24.3349H7.61712C6.0885 24.3349 4.84568 23.1222 4.84568 21.6306V12.9555L4.49925 13.2598C4.07055 13.6316 3.41666 13.5978 3.03126 13.1837C2.64586 12.7696 2.68483 12.1273 3.10921 11.7512L13.1643 2.96211ZM13.8572 5.07911L6.92859 11.1428V21.6348C6.92859 22.0066 7.24038 22.3109 7.62145 22.3109H9.70003V17.9163C9.70003 16.2345 11.0944 14.8739 12.8179 14.8739H14.8965C16.62 14.8739 18.0143 16.2345 18.0143 17.9163V22.3109H20.0929C20.474 22.3109 20.7858 22.0066 20.7858 21.6348V11.1428L13.8572 5.08333V5.07911ZM11.7786 22.3109H15.9358V17.9163C15.9358 17.3543 15.4724 16.9022 14.8965 16.9022H12.8179C12.242 16.9022 11.7786 17.3543 11.7786 17.9163V22.3109Z" fill="#0088F0"/>
</svg>
