<svg width="30" height="26" viewBox="0 0 30 26" fill="none" xmlns="http://www.w3.org/2000/svg">
<path d="M0 26L15 0L30 26H0ZM4.70455 23.2632H25.2955L15 5.47368L4.70455 23.2632ZM15 21.8947C15.3864 21.8947 15.7102 21.7636 15.9716 21.5013C16.233 21.239 16.3636 20.914 16.3636 20.5263C16.3636 20.1386 16.233 19.8136 15.9716 19.5513C15.7102 19.289 15.3864 19.1579 15 19.1579C14.6136 19.1579 14.2898 19.289 14.0284 19.5513C13.767 19.8136 13.6364 20.1386 13.6364 20.5263C13.6364 20.914 13.767 21.239 14.0284 21.5013C14.2898 21.7636 14.6136 21.8947 15 21.8947ZM13.6364 17.7895H16.3636V10.9474H13.6364V17.7895Z" fill="#FF000D"/>
</svg>
