<svg width="27" height="27" viewBox="0 0 27 27" fill="none" xmlns="http://www.w3.org/2000/svg">
<path d="M8.34766 3.76834C9.27111 3.76834 10.0172 2.92635 10.0172 1.88417C10.0172 0.841988 9.27111 0 8.34766 0H5.00859C2.24343 0 0 2.53185 0 5.65251V20.7259C0 23.8465 2.24343 26.3784 5.00859 26.3784H8.34766C9.27111 26.3784 10.0172 25.5364 10.0172 24.4942C10.0172 23.452 9.27111 22.61 8.34766 22.61H5.00859C4.08513 22.61 3.33906 21.7681 3.33906 20.7259V5.65251C3.33906 4.61033 4.08513 3.76834 5.00859 3.76834H8.34766ZM26.2221 14.5199C26.8742 13.7839 26.8742 12.5886 26.2221 11.8526L19.5439 4.31593C18.8918 3.57992 17.8327 3.57992 17.1805 4.31593C16.5284 5.05193 16.5284 6.2472 17.1805 6.98321L21.01 11.305H10.0172C9.09373 11.305 8.34766 12.147 8.34766 13.1892C8.34766 14.2314 9.09373 15.0734 10.0172 15.0734H21.01L17.1805 19.3952C16.5284 20.1312 16.5284 21.3264 17.1805 22.0625C17.8327 22.7985 18.8918 22.7985 19.5439 22.0625L26.2221 14.5258V14.5199Z" fill="#FF0000" fill-opacity="0.4"/>
</svg>
