<svg width="30" height="30" viewBox="0 0 30 30" fill="none" xmlns="http://www.w3.org/2000/svg">
<rect x="2.5" y="2.5" width="25" height="25" rx="4.5" fill="#E0EAFA"/>
<rect x="2.5" y="2.5" width="25" height="25" rx="4.5" stroke="#E0EAFA" stroke-width="5"/>
<path d="M9.16667 20.8333V9.16667V18.625V16.8542V20.8333ZM9.16667 22.5C8.70833 22.5 8.31597 22.3368 7.98958 22.0104C7.66319 21.684 7.5 21.2917 7.5 20.8333V9.16667C7.5 8.70833 7.66319 8.31597 7.98958 7.98958C8.31597 7.66319 8.70833 7.5 9.16667 7.5H15H20.8333C21.2917 7.5 21.684 7.66319 22.0104 7.98958C22.3368 8.31597 22.5 8.70833 22.5 9.16667V15.8333H20.8333V9.16667H9.16667V20.8333H15V22.5H9.16667ZM19.4583 23.3333L16.5 20.375L17.6875 19.2083L19.4583 20.9792L23 17.4375L24.1667 18.625L19.4583 23.3333ZM11.6667 15.8333C11.9028 15.8333 12.1007 15.7535 12.2604 15.5938C12.4201 15.434 12.5 15.2361 12.5 15C12.5 14.7639 12.4201 14.566 12.2604 14.4063C12.1007 14.2465 11.9028 14.1667 11.6667 14.1667C11.4306 14.1667 11.2326 14.2465 11.0729 14.4063C10.9132 14.566 10.8333 14.7639 10.8333 15C10.8333 15.2361 10.9132 15.434 11.0729 15.5938C11.2326 15.7535 11.4306 15.8333 11.6667 15.8333ZM11.6667 12.5C11.9028 12.5 12.1007 12.4201 12.2604 12.2604C12.4201 12.1007 12.5 11.9028 12.5 11.6667C12.5 11.4306 12.4201 11.2326 12.2604 11.0729C12.1007 10.9132 11.9028 10.8333 11.6667 10.8333C11.4306 10.8333 11.2326 10.9132 11.0729 11.0729C10.9132 11.2326 10.8333 11.4306 10.8333 11.6667C10.8333 11.9028 10.9132 12.1007 11.0729 12.2604C11.2326 12.4201 11.4306 12.5 11.6667 12.5ZM14.1667 15.8333H19.1667V14.1667H14.1667V15.8333ZM14.1667 12.5H19.1667V10.8333H14.1667V12.5Z" fill="#0088F0"/>
</svg>
