<svg width="34" height="34" viewBox="0 0 34 34" fill="none" xmlns="http://www.w3.org/2000/svg">
<rect x="2.5" y="2.5" width="29" height="29" rx="4.5" fill="#E0EAFA"/>
<rect x="2.5" y="2.5" width="29" height="29" rx="4.5" stroke="#E0EAFA" stroke-width="5"/>
<path d="M6 26L17 7L28 26H6ZM9.45 24H24.55L17 11L9.45 24ZM17 23C17.2833 23 17.5208 22.9042 17.7125 22.7125C17.9042 22.5208 18 22.2833 18 22C18 21.7167 17.9042 21.4792 17.7125 21.2875C17.5208 21.0958 17.2833 21 17 21C16.7167 21 16.4792 21.0958 16.2875 21.2875C16.0958 21.4792 16 21.7167 16 22C16 22.2833 16.0958 22.5208 16.2875 22.7125C16.4792 22.9042 16.7167 23 17 23ZM16 20H18V15H16V20Z" fill="#0088F0"/>
</svg>
