<svg width="50" height="50" viewBox="0 0 50 50" fill="none" xmlns="http://www.w3.org/2000/svg">
<rect width="50" height="50" fill="#0088F0"/>
<path d="M15.6667 20.2563V14.6958C15.6667 13.2954 16.4063 11 19.9518 11C20.4139 11.0048 20.875 11.0414 21.332 11.1097C22.0518 11.3192 22.6845 11.7561 23.1354 12.3552C23.5863 12.9543 23.8312 13.6833 23.8333 14.4332V23.6813C24.5986 23.879 25.4014 23.879 26.1667 23.6813V14.4332C26.1688 13.6833 26.4137 12.9543 26.8646 12.3552C27.3155 11.7561 27.9481 11.3192 28.668 11.1097C29.1251 11.043 29.5862 11.0079 30.0482 11.0047C33.5937 11 34.3333 13.2954 34.3333 14.6958V20.2563C34.3305 21.2696 33.9992 22.2547 33.3892 23.0637C32.7791 23.8727 31.9233 24.462 30.95 24.7433L26.9238 25.8951C25.6656 26.2538 24.3321 26.2538 23.0738 25.8951L19.05 24.7433C18.0767 24.462 17.2209 23.8727 16.6108 23.0637C16.0008 22.2547 15.6695 21.2696 15.6667 20.2563ZM36.6667 15.6912V20.2563C36.6621 21.7768 36.1646 23.2548 35.2489 24.4684C34.3332 25.6821 33.0487 26.5659 31.5882 26.9873L27.5643 28.138C25.889 28.6165 24.1133 28.6165 22.438 28.138L18.4107 26.9862C16.9506 26.5644 15.6666 25.6806 14.7512 24.4673C13.8358 23.2539 13.3383 21.7764 13.3333 20.2563V15.6912C12.6114 16.2301 12.0248 16.9297 11.6198 17.7346C11.2148 18.5395 11.0026 19.4276 11 20.3287V28.4974C11.0019 30.0443 11.617 31.5273 12.7106 32.6212C13.8042 33.715 15.2868 34.3303 16.8333 34.3322H23.8333V36.6661H20.3333C20.0239 36.6661 19.7272 36.789 19.5084 37.0079C19.2896 37.2267 19.1667 37.5235 19.1667 37.833C19.1667 38.1425 19.2896 38.4394 19.5084 38.6582C19.7272 38.8771 20.0239 39 20.3333 39H29.6667C29.9761 39 30.2728 38.8771 30.4916 38.6582C30.7104 38.4394 30.8333 38.1425 30.8333 37.833C30.8333 37.5235 30.7104 37.2267 30.4916 37.0079C30.2728 36.789 29.9761 36.6661 29.6667 36.6661H26.1667V34.3322H33.1667C34.7132 34.3303 36.1958 33.715 37.2894 32.6212C38.383 31.5273 38.9981 30.0443 39 28.4974V20.3287C38.9974 19.4276 38.7852 18.5395 38.3802 17.7346C37.9752 16.9297 37.3886 16.2301 36.6667 15.6912Z" fill="white"/>
</svg>
